<svg width="16" height="16" viewBox="0 0 32 32" version="1.1" xmlns="http://www.w3.org/2000/svg">
    <path d="M4.7434 22.505A12.9769 12.9769 0 0014.88 28.949l5.8848-10.1927L16 16.0058 11.2385 18.755l-1.5875-2.75L8.4885 13.9919 5.3553 8.5649A12.9894 12.9894 0 004.7434 22.505z" fill="#00ac47"></path>
    <path d="M16 3.0072A12.9769 12.9769 0 005.3507 8.5636l5.8848 10.1927L16 16.0057V10.5072H27.766A12.99 12.99 0 0016 3.0072z" fill="#ea4435"></path>
    <path d="M27.2557 22.505a12.9772 12.9772 0 00.5124-12H15.9986v5.5011l4.7619 2.7492-1.5875 2.75-1.1625 2.0135-3.1333 5.4269A12.99 12.99 0 0027.2557 22.505z" fill="#ffba00"></path>
    <circle cx="15.9995" cy="16.0072" fill="#fff" r="5.5"></circle>
    <circle cx="15.9995" cy="16.0072" fill="#4285f4" r="4.25"></circle>
</svg>