<svg width="16" height="16" viewBox="0 0 512 512" version="1.1" xmlns="http://www.w3.org/2000/svg">
    <radialGradient id="a" cx="0.6" cy="0.5">
        <stop offset="0.8" stop-color="#148"></stop>
        <stop offset="1" stop-color="#137"></stop>
    </radialGradient>

    <radialGradient id="b" cx="0.5" cy=".6" fx=".2" fy=".6">
        <stop offset="0.8" stop-color="#38c"></stop>
        <stop offset="1" stop-color="#269"></stop>
    </radialGradient>

    <linearGradient id="c" y1="0.5" y2="1">
        <stop offset="0.1" stop-color="#5ad"></stop>
        <stop offset="0.6" stop-color="#5c8"></stop>
        <stop offset="0.8" stop-color="#7d5"></stop>
    </linearGradient>

    <path d="M439 374c-50 77-131 98-163 96-191-9-162-262-47-261-82 52 30 224 195 157 17-12 20 3 15 8" fill="url(#a)"></path>
    <path d="M311 255c18-82-31-135-129-135S38 212 38 259c0 124 125 253 287 203-134 39-214-116-146-210 46-66 123-68 132 3M411 99h1" fill="url(#b)"></path>
    <path d="M39 253C51-15 419-30 472 202c14 107-86 149-166 115-42-26 26-20-3-99-48-112-251-103-264 35" fill="url(#c)"></path>
</svg>