<svg width="16" height="16" viewBox="0 0 24 24" version="1.1" xmlns="http://www.w3.org/2000/svg">
  <path fill-rule="evenodd" fill="#00A1F1" d="M13 3l1 .06c2.8-1.27 5.23-1.42 6.5-.14 1 1 1.08 2.75.42 4.8A9 9 0 0122 12L22 13H9.08c.37 2.28 2 4 3.92 4a3.81 3.81 0 003.2-2h5.3A9 9 0 0113 21a8.91 8.91 0 01-3.59-.75c-2.91 1.43-5.52 1.65-6.84.31C1 19 1.68 15.57 4 12A25.28 25.28 0 017.57 7.65l.81-.77a20.38 20.38 0 00-4.19 3.29A9 9 0 0113 3m0 4a4.22 4.22 0 00-3.82 3.5h7.64A4.22 4.22 0 0013 7m7.06-2.94c-.66-.67-1.84-.71-3.32-.25a9.09 9.09 0 013.67 3.08 2.92 2.92 0 00-.35-2.83M3.89 20c.83.84 2.51.69 4.55-.24a9.05 9.05 0 01-4-4.88C3.27 17.15 3 19.07 3.89 20z"></path>
</svg>